<?xml version="1.0"?>
<svg xmlns="http://www.w3.org/2000/svg" viewBox="0 0 64 64" width="512" height="512"><g id="outline"><path d="M48,2A14.015,14.015,0,0,0,34,16V31a1,1,0,0,0,1,1h1V48c0,8.374,4.822,14,12,14s12-5.626,12-14V32h1a1,1,0,0,0,1-1V16A14.015,14.015,0,0,0,48,2ZM58,48c0,5.536-2.619,12-10,12S38,53.536,38,48V32H58Zm2-18H36V16a12,12,0,0,1,24,0Z"/><path d="M3,32H4V48c0,8.374,4.822,14,12,14s12-5.626,12-14V32h1a1,1,0,0,0,1-1V16A14,14,0,0,0,2,16V31A1,1,0,0,0,3,32ZM26,48c0,5.536-2.619,12-10,12S6,53.536,6,48V32H26ZM4,16a12,12,0,0,1,24,0V30H4Z"/><path d="M15.293,57.707a1,1,0,0,0,1.414,0l4-4A8.208,8.208,0,0,0,23,48a4.079,4.079,0,0,0-3.947-3.994,3.741,3.741,0,0,0-2.815,1.021c-.083.079-.163.161-.238.248-.075-.087-.155-.169-.238-.248a3.743,3.743,0,0,0-2.815-1.021A4.079,4.079,0,0,0,9,48a8.208,8.208,0,0,0,2.294,5.708ZM13.053,46q.054,0,.108,0a1.735,1.735,0,0,1,1.224.478A2.1,2.1,0,0,1,15,48a1,1,0,0,0,2,0,2.1,2.1,0,0,1,.615-1.522A1.756,1.756,0,0,1,18.947,46,2.109,2.109,0,0,1,21,48a6.255,6.255,0,0,1-1.708,4.294L16,55.586l-3.292-3.292A6.255,6.255,0,0,1,11,48,2.109,2.109,0,0,1,13.053,46Z"/><path d="M47.293,57.707a1,1,0,0,0,1.414,0l4-4A8.208,8.208,0,0,0,55,48a4.079,4.079,0,0,0-3.947-3.994,3.741,3.741,0,0,0-2.815,1.021c-.083.079-.163.161-.238.248-.075-.087-.155-.169-.238-.248a3.743,3.743,0,0,0-2.815-1.021A4.079,4.079,0,0,0,41,48a8.208,8.208,0,0,0,2.294,5.708ZM45.053,46q.054,0,.108,0a1.735,1.735,0,0,1,1.224.478A2.1,2.1,0,0,1,47,48a1,1,0,0,0,2,0,2.1,2.1,0,0,1,.615-1.522A1.754,1.754,0,0,1,50.947,46,2.109,2.109,0,0,1,53,48a6.255,6.255,0,0,1-1.708,4.294L48,55.586l-3.292-3.292A6.255,6.255,0,0,1,43,48,2.109,2.109,0,0,1,45.053,46Z"/></g></svg>
